<svg width="27" height="20" viewBox="0 0 27 20" fill="none" xmlns="http://www.w3.org/2000/svg">
<g clip-path="url(#clip0_1756_6596)">
<path d="M9.77566 9.12328C7.70282 9.12328 5.99567 10.7186 5.80872 12.7477H7.04643C7.22793 11.3986 8.38101 10.3546 9.77566 10.3546H12.9539H14.2476H17.4313V10.3451C19.6283 10.3451 21.416 8.55273 21.416 6.3499V4.19633C21.4132 1.99352 19.627 0.201172 17.4285 0.201172H9.77433C7.57727 0.201172 5.78961 1.99352 5.78961 4.19633V4.92833H4.67607C2.464 4.92833 0.664062 6.733 0.664062 8.95224V10.5366C0.664062 12.7544 2.464 14.5591 4.67607 14.5591H10.2083C11.6343 14.5591 12.887 13.8094 13.5994 12.682C14.3117 13.808 15.5644 14.5591 16.9905 14.5591H20.1851V15.2734C20.1851 16.7975 18.9487 18.0371 17.4285 18.0371H9.77433C8.25413 18.0371 7.01777 16.7975 7.01777 15.2734V15.1009H5.78961V15.2734C5.78961 17.4761 7.57727 19.2685 9.77433 19.2685H17.4285C19.6256 19.2685 21.4132 17.4761 21.4132 15.2734V14.5591H22.5268C24.7388 14.5591 26.5388 12.7544 26.5388 10.5366V8.95224C26.5388 6.73436 24.7388 4.9297 22.5268 4.9297H21.9727V6.20076H22.5268C24.0402 6.20076 25.271 7.43489 25.271 8.95224V10.5366C25.271 12.0539 24.0402 13.2881 22.5268 13.2881H16.9891C15.5985 13.2881 14.4482 12.2441 14.2708 10.8978H12.9253C12.7478 12.2441 11.5975 13.2881 10.2069 13.2881H4.67607C3.1627 13.2881 1.9318 12.0539 1.9318 10.5366V8.95224C1.9318 7.43489 3.1627 6.20076 4.67607 6.20076H10.2083C11.5933 6.20076 12.7383 7.23512 12.9239 8.57323H14.2749C14.4605 7.23512 15.6054 6.20076 16.9905 6.20076H19.6351V4.9297H16.9905C15.5644 4.9297 14.3117 5.67947 13.5994 6.80687C12.887 5.68084 11.6343 4.9297 10.2083 4.9297H7.01777V4.19771C7.01777 2.67352 8.25413 1.43393 9.77433 1.43393H17.4285C18.9487 1.43393 20.1851 2.67352 20.1851 4.19771V6.35126C20.1851 7.87543 18.9487 9.11502 17.4285 9.11502H14.2449H12.9512" fill="black"/>
</g>
<defs>
<clipPath id="clip0_1756_6596">
<rect width="27" height="20" fill="white" transform="translate(0.5)"/>
</clipPath>
</defs>
</svg>
